<?xml version="1.0" encoding="utf-8"?>
<!-- Generator: Adobe Illustrator 16.0.0, SVG Export Plug-In . SVG Version: 6.00 Build 0)  -->
<svg version="1.2" baseProfile="tiny" id="logo_x5F_gradient1"
	 xmlns="http://www.w3.org/2000/svg" xmlns:xlink="http://www.w3.org/1999/xlink" x="0px" y="0px" width="5000px"
	 height="4618.871px" viewBox="0 0 5000 4618.871" xml:space="preserve">
<linearGradient id="SVGID_1_" gradientUnits="userSpaceOnUse" x1="1517.8921" y1="3848.6348" x2="3467.8296" y2="1898.6974">
	<stop  offset="0" style="stop-color:#002E45"/>
	<stop  offset="0.0991" style="stop-color:#00344D"/>
	<stop  offset="0.2609" style="stop-color:#004360"/>
	<stop  offset="0.4651" style="stop-color:#00587E"/>
	<stop  offset="0.7038" style="stop-color:#0072A4"/>
	<stop  offset="0.9689" style="stop-color:#008DCF"/>
	<stop  offset="1" style="stop-color:#0090D4"/>
</linearGradient>
<path fill="url(#SVGID_1_)" d="M1444.486,3695.098c-49.147-21.743-95.498-42.248-143.708-63.578
	c129.646-294.658,258.577-587.693,387.508-880.727c-214.202,107.785-407.294,242.581-575.566,412.031
	c-36.884-36.749-73.157-72.883-112.721-112.301c46.901-42.914,92.715-87.961,141.764-129.156
	c189.848-159.42,398.415-288.934,625.878-387.992c11.476-4.997,23.096-16.826,28.177-28.33
	c227.393-514.832,454.055-1029.995,680.819-1545.108c4.764-10.814,9.69-21.556,16.267-36.164
	c30.484,69.246,59.42,134.947,88.347,200.652c203.441,462.063,406.796,924.164,610.87,1385.951
	c4.452,10.078,15.643,19.764,26.019,24.266c267.604,116.059,510.781,270.188,728.014,465.023c2.955,2.651,5.849,5.379,8.725,8.119
	c14.367,13.694,28.713,27.408,45.121,43.078c-36.096,38.123-71.791,75.828-108.229,114.314
	c-176.083-170.4-375.062-305.318-594.442-414.016c128.908,292.98,257.812,585.965,387.396,880.488
	c-48.279,21.227-95.236,41.88-144.238,63.434c-19.381-43.811-37.975-85.657-56.428-127.562
	c-131.788-299.31-263.401-598.704-395.921-897.692c-5.016-11.312-17.224-23.059-28.765-27.324
	c-206.329-76.236-418.741-117.361-639.61-106.105c-172.755,8.805-339.442,46.602-500.811,108.129
	c-8.66,3.305-16.744,13.783-20.752,22.844c-147.972,334.689-295.436,669.605-442.989,1004.479
	C1452.055,3679.018,1448.653,3686.078,1444.486,3695.098z M2492.742,1314.955c-167.856,381.388-333.196,757.051-500.666,1137.563
	c166.869-48.596,331.509-75.104,500.051-75.188c169.315-0.094,334.553,27.659,501.659,76.074
	C2825.981,2072.128,2660.501,1696.132,2492.742,1314.955z"/>
<g>
</g>
<g>
</g>
<g>
</g>
<g>
</g>
<g>
</g>
<g>
</g>
</svg>
