<?xml version="1.0" encoding="utf-8"?>
<!-- Generator: Adobe Illustrator 16.0.0, SVG Export Plug-In . SVG Version: 6.00 Build 0)  -->
<!DOCTYPE svg PUBLIC "-//W3C//DTD SVG 1.0//EN" "http://www.w3.org/TR/2001/REC-SVG-20010904/DTD/svg10.dtd">
<svg version="1.0" id="Ebene_1" xmlns="http://www.w3.org/2000/svg" xmlns:xlink="http://www.w3.org/1999/xlink" x="0px" y="0px"
	 width="113.244px" height="169.938px" viewBox="0 0 113.244 169.938" enable-background="new 0 0 113.244 169.938"
	 xml:space="preserve">
<g>
	<defs>
		<rect id="SVGID_1_" x="0.014" y="-0.001" width="113.244" height="169.937"/>
	</defs>
	<clipPath id="SVGID_2_">
		<use xlink:href="#SVGID_1_"  overflow="visible"/>
	</clipPath>
	<g clip-path="url(#SVGID_2_)">
		<defs>
			<rect id="SVGID_3_" x="0.369" y="0.566" width="112.278" height="112.536"/>
		</defs>
		<use xlink:href="#SVGID_3_"  overflow="visible" fill="#002956"/>
		<clipPath id="SVGID_4_">
			<use xlink:href="#SVGID_3_"  overflow="visible"/>
		</clipPath>
		<polygon clip-path="url(#SVGID_4_)" fill="#E50000" points="54.877,97.604 13.492,97.604 27.081,22.771 7.624,22.771 
			-9.611,113.197 51.541,114.088 		"/>
		<polygon clip-path="url(#SVGID_4_)" fill="#FFFFFF" points="60.17,47.008 24.487,47.008 22.997,56.71 43.074,56.71 19.021,87.017 
			18.027,93.52 55.498,93.52 56.989,83.816 35.123,83.816 59.176,53.409 		"/>
		<polygon clip-path="url(#SVGID_4_)" fill="#008FC5" points="119.365,-0.118 44.956,-0.118 42.476,17.906 70.68,17.906 
			58.145,93.07 76.094,93.07 88.486,17.906 116.689,17.906 		"/>
	</g>
	<g clip-path="url(#SVGID_2_)">
		<defs>
			<rect id="SVGID_5_" x="0.514" y="0.499" width="112.244" height="112.952"/>
		</defs>
		<clipPath id="SVGID_6_">
			<use xlink:href="#SVGID_5_"  overflow="visible"/>
		</clipPath>
		<path clip-path="url(#SVGID_6_)" fill="#002956" d="M56.319,53.668c0.562,3.967,2.388,7.443,5.843,9.389
			c8.668,4.905,16.602-1.578,25.045-1.369c3.873,0.096,11.297,2.438,11.738,3.78c-0.049,1.593-1.545,4.593-1.322,4.569
			c-4.506,0.036-7.975-4.398-15.547-3.563c-3.408,0.373-10.535,4.782-17.816,4.647c-4.81-0.099-9.425-2.284-11.065-7.631
			C51.917,59.365,53.738,55.539,56.319,53.668"/>
		<path clip-path="url(#SVGID_6_)" fill="none" stroke="#FFFFFF" stroke-width="1.25" stroke-miterlimit="3.864" d="M56.319,53.668
			c0.562,3.967,2.388,7.443,5.843,9.389c8.668,4.905,16.602-1.578,25.045-1.369c3.873,0.096,11.297,2.438,11.738,3.78
			c-0.049,1.593-1.545,4.593-1.322,4.569c-4.506,0.036-7.975-4.398-15.547-3.563c-3.408,0.373-10.535,4.782-17.816,4.647
			c-4.81-0.099-9.425-2.284-11.065-7.631C51.917,59.365,53.738,55.539,56.319,53.668"/>
		<path clip-path="url(#SVGID_6_)" fill="#002956" d="M133.137,114.049l-0.85-80.397l-47.764-0.018
			c-3.408,3.072-6.766,3.636-8.531,4.606c-2.205,1.21-4.268,1.644-5.104,3.833c-0.328,1.348-0.439,2.496,0.48,3.03
			c0.154,0.082,0.607,0.334,0.607,0.334c0.803-1.096,1.623-1.991,2.172-2.581c-0.549,0.59-1.338,1.542-2.172,2.581
			c-0.66,0.921-1.178,1.886-1.357,3.145c-0.336,2.354-1.1,8.562,4.863,10.008c5.613,1.367,10.088-3.396,16.219-3.099
			c4.883,0.233,6.332,2.282,6.855,5.998c0.369,2.564,0.258,4.479-0.568,6.515c-1.811,4.391-3.932,6.1-7.871,4.388
			c-5.445-2.371-9.312-3.145-16.24-0.875c-0.51,0.637-0.904,0.679-1.229,1.755c-0.135,2.416,0.609,6.187,1.449,7.247
			c0.867,1.098,1.727,1.249,3.461,1.249c13.354-1.318,14.951,4.23,14.072,7.676c-1.158,4.539-7.438,8.713-22.449,2.641
			c-4.939-2.004-13.056-3.072-18.76-0.439c-4.313,1.994-9.953,8.197-23.819,3.363c-1.404,5.154-0.419,13.418,4.931,19.037
			c0.125,0.133,101.32,0.57,101.32,0.57"/>
		<path clip-path="url(#SVGID_6_)" fill="none" stroke="#FFFFFF" stroke-width="1.25" stroke-miterlimit="3.8637" d="
			M133.137,114.049l-0.85-80.397l-47.764-0.018c-3.408,3.072-6.766,3.636-8.531,4.606c-2.205,1.21-4.268,1.644-5.104,3.833
			c-0.328,1.348-0.439,2.496,0.48,3.03c0.154,0.082,0.607,0.334,0.607,0.334c0.803-1.096,1.623-1.991,2.172-2.581
			c-0.549,0.59-1.338,1.542-2.172,2.581c-0.66,0.921-1.178,1.886-1.357,3.145c-0.336,2.354-1.1,8.562,4.863,10.008
			c5.613,1.367,10.088-3.396,16.219-3.099c4.883,0.233,6.332,2.282,6.855,5.998c0.369,2.564,0.258,4.479-0.568,6.515
			c-1.811,4.391-3.932,6.1-7.871,4.388c-5.445-2.371-9.312-3.145-16.24-0.875c-0.51,0.637-0.904,0.679-1.229,1.755
			c-0.135,2.416,0.609,6.187,1.449,7.247c0.867,1.098,1.727,1.249,3.461,1.249c13.354-1.318,14.951,4.23,14.072,7.676
			c-1.158,4.539-7.438,8.713-22.449,2.641c-4.939-2.004-13.056-3.072-18.76-0.439c-4.313,1.994-9.953,8.197-23.819,3.363
			c-1.404,5.154-0.419,13.418,4.931,19.037c0.125,0.133,101.32,0.57,101.32,0.57"/>
		<path clip-path="url(#SVGID_6_)" fill="#FFFFFF" d="M87.625,39.395c1.469,1.275,2.135,4.376,5.74,6.598
			c-2.945,0-5.812-3.415-8.613-0.63C84.119,43.183,87.553,42.261,87.625,39.395z"/>
		<path clip-path="url(#SVGID_6_)" fill="none" stroke="#FFFFFF" stroke-width="0.0855" stroke-miterlimit="3.864" d="
			M87.625,39.395c1.469,1.275,2.135,4.376,5.74,6.598c-2.945,0-5.812-3.415-8.613-0.63C84.119,43.183,87.553,42.261,87.625,39.395z"
			/>
		<path clip-path="url(#SVGID_6_)" fill="#002956" d="M71.424,10.487c4.961-2.792,9.004-0.306,12.146,5.089
			c3.143-3.408,8.496-1.239,9.301,3.326c-7.297,2.81-4.965,10.079,1.721,10.079c7.672,0,8.281-8.212,2.031-9.968
			c-0.229-2.92,1.762-5.961,6.361-5.912c0.09-3.323,4.744-8.112,4.744-8.112s5.441,5.383,5.531,8.706
			c4.598-0.049,5.402,2.456,5.174,5.376c-6.25,1.756-5.639,9.968,2.031,9.968c6.688,0,9.018-7.269,1.721-10.079
			c0.805-4.564,6.16-6.734,9.301-3.326c3.143-5.396,7.186-7.881,12.146-5.089C136.85,17.308,133,25.949,132.395,36.561
			l-49.732,0.012C82.057,25.96,78.209,17.25,71.424,10.487z"/>
		<path clip-path="url(#SVGID_6_)" fill="none" stroke="#FFFFFF" stroke-width="1.25" stroke-miterlimit="3.864" d="M71.424,10.487
			c4.961-2.792,9.004-0.306,12.146,5.089c3.143-3.408,8.496-1.239,9.301,3.326c-7.297,2.81-4.965,10.079,1.721,10.079
			c7.672,0,8.281-8.212,2.031-9.968c-0.229-2.92,1.762-5.961,6.361-5.912c0.09-3.323,4.744-8.112,4.744-8.112
			s5.441,5.383,5.531,8.706c4.598-0.049,5.402,2.456,5.174,5.376c-6.25,1.756-5.639,9.968,2.031,9.968
			c6.688,0,9.018-7.269,1.721-10.079c0.805-4.564,6.16-6.734,9.301-3.326c3.143-5.396,7.186-7.881,12.146-5.089
			C136.85,17.308,133,25.949,132.395,36.561l-49.732,0.012C82.057,25.96,78.209,17.25,71.424,10.487z"/>
		<use xlink:href="#SVGID_5_"  overflow="visible" fill="none" stroke="#002956"/>
	</g>
	<rect x="0.514" y="113.742" clip-path="url(#SVGID_2_)" fill="#FFFFFF" width="112.244" height="55.693"/>
	<rect x="0.514" y="113.742" clip-path="url(#SVGID_2_)" fill="none" stroke="#002956" width="112.244" height="55.693"/>
	<path clip-path="url(#SVGID_2_)" fill="#002956" d="M109.018,131.439c-0.262-0.303-0.549-0.453-0.893-0.453
		c-0.496,0-0.895,0.412-1.514,1.498l-0.068-1.402h-1.416v6.393h1.637v-2.928c0-0.48,0.137-0.854,0.439-1.225
		c0.248-0.303,0.537-0.48,0.797-0.48c0.18,0,0.316,0.055,0.496,0.193L109.018,131.439z M103.312,137.475v-6.393h-1.65v3.85
		l-0.221,0.234c-0.715,0.756-1.195,1.113-1.553,1.113c-0.385,0-0.523-0.303-0.523-1.086v-4.111h-1.65v4.701
		c0,1.211,0.578,1.803,1.732,1.803c0.812,0,1.445-0.33,2.215-1.184v1.072H103.312z M99.998,129.721c0-0.439-0.357-0.797-0.783-0.797
		c-0.441,0-0.799,0.357-0.799,0.797c0,0.426,0.357,0.783,0.799,0.783C99.641,130.504,99.998,130.146,99.998,129.721z
		 M102.693,129.693c0-0.439-0.357-0.783-0.797-0.783c-0.428,0-0.785,0.344-0.785,0.783s0.357,0.783,0.785,0.783
		C102.336,130.477,102.693,130.133,102.693,129.693z M98.885,127.795c-0.619-0.289-0.881-0.371-1.361-0.453
		c-0.275-0.041-0.551-0.068-0.783-0.068c-1.762,0-2.779,1.1-2.779,2.982v0.826l-1.045,0.164v1.045h1.045v5.184h1.637v-5.184h1.348
		v-1.209h-1.348v-0.371c0-0.963,0.068-1.293,0.316-1.65c0.207-0.289,0.51-0.426,0.936-0.426s0.756,0.096,1.32,0.398L98.885,127.795z
		 M87.797,133.502h-2.502c0.137-0.867,0.633-1.361,1.361-1.361C87.426,132.141,87.756,132.525,87.797,133.502z M89.447,136.857
		l-0.605-1.252c-0.59,0.371-0.838,0.494-1.223,0.605c-0.262,0.082-0.51,0.109-0.756,0.109c-0.605,0-1.156-0.303-1.432-0.77
		c-0.15-0.262-0.191-0.482-0.219-1.018h4.234v-0.701c0-1.732-1.1-2.93-2.682-2.93c-1.828,0-3.203,1.527-3.203,3.549
		c0,1.951,1.195,3.203,3.094,3.203c0.742,0,1.43-0.152,2.104-0.453C88.912,137.131,89.145,137.021,89.447,136.857z M82.422,137.475
		v-10.023h-1.637v10.023H82.422z M77.361,135.881c-0.234,0.178-0.316,0.232-0.426,0.289c-0.221,0.123-0.469,0.191-0.674,0.191
		c-0.414,0-0.66-0.248-0.66-0.66c0-0.164,0.027-0.289,0.123-0.535l1.637-0.537V135.881z M79.52,136.32
		c-0.439-0.041-0.508-0.137-0.508-0.715v-2.668c0-1.402-0.688-2.035-2.215-2.035c-1.732,0-2.723,0.646-2.723,1.773
		c0,0.18,0.014,0.248,0.084,0.441l1.566-0.344c-0.027-0.082-0.041-0.111-0.041-0.166c0-0.316,0.398-0.576,0.895-0.576
		c0.535,0,0.783,0.316,0.783,1.004v0.535l-1.814,0.523c-0.936,0.273-1.32,0.576-1.541,1.168c-0.068,0.207-0.109,0.426-0.109,0.646
		c0,1.018,0.77,1.732,1.855,1.732c0.646,0,1.184-0.234,1.787-0.783c0.289,0.562,0.551,0.701,1.375,0.701h0.344L79.52,136.32z
		 M73.512,131.439c-0.262-0.303-0.551-0.453-0.895-0.453c-0.494,0-0.893,0.412-1.512,1.498l-0.068-1.402h-1.418v6.393h1.637v-2.928
		c0-0.48,0.139-0.854,0.439-1.225c0.248-0.303,0.537-0.48,0.799-0.48c0.178,0,0.316,0.055,0.494,0.193L73.512,131.439z
		 M68.809,136.857l-0.521-1.197c-0.455,0.303-0.688,0.398-0.881,0.398c-0.262,0-0.33-0.205-0.33-0.92v-2.848h1.389v-1.209h-1.389
		v-1.912h-1.553v1.912l-0.949,0.164v1.045h0.949v3.975c0,0.949,0.398,1.389,1.25,1.389c0.455,0,0.949-0.152,1.43-0.426
		C68.383,137.117,68.59,136.994,68.809,136.857z M63.611,137.475v-4.701c0-1.211-0.576-1.816-1.732-1.816
		c-0.811,0-1.443,0.344-2.213,1.184v-1.059h-1.65v6.393h1.65v-3.85l0.219-0.232c0.716-0.771,1.197-1.115,1.541-1.115
		c0.398,0,0.535,0.289,0.535,1.086v4.111H63.611z M55.156,133.502h-2.502c0.137-0.867,0.632-1.361,1.361-1.361
		C54.784,132.141,55.114,132.525,55.156,133.502z M56.806,136.857l-0.605-1.252c-0.591,0.371-0.839,0.494-1.224,0.605
		c-0.261,0.082-0.509,0.109-0.756,0.109c-0.605,0-1.155-0.303-1.43-0.77c-0.151-0.262-0.192-0.482-0.22-1.018h4.235v-0.701
		c0-1.732-1.1-2.93-2.681-2.93c-1.829,0-3.204,1.527-3.204,3.549c0,1.951,1.196,3.203,3.094,3.203c0.743,0,1.43-0.152,2.104-0.453
		C56.27,137.131,56.503,137.021,56.806,136.857z M50.233,137.475v-1.291h-3.286l3.286-4.07v-1.031h-5.184v1.293h3.107l-3.107,3.891
		v1.209H50.233z M44.183,131.521c-0.578-0.33-0.797-0.412-1.402-0.535c-0.399-0.084-0.756-0.125-1.059-0.125
		c-1.554,0-2.599,0.812-2.599,2.008c0,0.852,0.522,1.443,1.65,1.883l1.1,0.428c0.44,0.164,0.646,0.385,0.646,0.674
		c0,0.344-0.371,0.549-1.004,0.549c-0.234,0-0.467-0.041-0.715-0.123c-0.468-0.152-0.729-0.275-1.375-0.674l-0.522,1.334
		c0.701,0.357,0.99,0.467,1.581,0.592c0.385,0.082,0.729,0.123,1.045,0.123c1.54,0,2.558-0.77,2.558-1.939
		c0-0.562-0.261-1.127-0.66-1.416c-0.289-0.205-1.21-0.633-1.925-0.879c-0.578-0.207-0.797-0.385-0.797-0.674
		c0-0.357,0.413-0.605,1.045-0.605c0.467,0,1.018,0.164,1.471,0.439c0.124,0.068,0.275,0.166,0.44,0.275L44.183,131.521z
		 M36.648,133.502h-2.502c0.137-0.867,0.632-1.361,1.361-1.361C36.277,132.141,36.607,132.525,36.648,133.502z M38.298,136.857
		l-0.605-1.252c-0.591,0.371-0.839,0.494-1.224,0.605c-0.261,0.082-0.509,0.109-0.756,0.109c-0.605,0-1.155-0.303-1.43-0.77
		c-0.151-0.262-0.192-0.482-0.22-1.018h4.235v-0.701c0-1.732-1.1-2.93-2.681-2.93c-1.829,0-3.204,1.527-3.204,3.549
		c0,1.951,1.196,3.203,3.094,3.203c0.742,0,1.43-0.152,2.104-0.453C37.762,137.131,37.996,137.021,38.298,136.857z M29.595,135.344
		c-0.399,0.619-0.907,0.963-1.416,0.963c-0.784,0-1.32-0.811-1.32-1.967c0-1.209,0.674-2.104,1.582-2.104
		c0.509,0,0.962,0.248,1.072,0.592c0.042,0.137,0.083,0.467,0.083,0.824V135.344z M31.231,137.475v-10.023h-1.636v3.893
		c-0.357-0.248-0.509-0.303-0.853-0.387c-0.192-0.041-0.385-0.068-0.563-0.068c-1.691,0-3.053,1.596-3.053,3.576
		c0,1.842,1.114,3.189,2.626,3.189c0.426,0,0.825-0.123,1.196-0.357c0.302-0.193,0.412-0.316,0.646-0.688v0.865H31.231z
		 M23.875,137.475v-4.701c0-1.211-0.578-1.816-1.733-1.816c-0.811,0-1.443,0.344-2.213,1.184v-1.059h-1.65v6.393h1.65v-3.85
		l0.22-0.232c0.715-0.771,1.196-1.115,1.54-1.115c0.399,0,0.536,0.289,0.536,1.086v4.111H23.875z M14.704,135.881
		c-0.234,0.178-0.316,0.232-0.426,0.289c-0.22,0.123-0.467,0.191-0.674,0.191c-0.413,0-0.66-0.248-0.66-0.66
		c0-0.164,0.028-0.289,0.124-0.535l1.636-0.537V135.881z M16.862,136.32c-0.44-0.041-0.509-0.137-0.509-0.715v-2.668
		c0-1.402-0.688-2.035-2.214-2.035c-1.732,0-2.722,0.646-2.722,1.773c0,0.18,0.014,0.248,0.083,0.441l1.567-0.344
		c-0.027-0.082-0.042-0.111-0.042-0.166c0-0.316,0.399-0.576,0.894-0.576c0.536,0,0.784,0.316,0.784,1.004v0.535l-1.815,0.523
		c-0.935,0.273-1.32,0.576-1.54,1.168c-0.069,0.207-0.11,0.426-0.11,0.646c0,1.018,0.77,1.732,1.856,1.732
		c0.646,0,1.183-0.234,1.788-0.783c0.289,0.562,0.55,0.701,1.375,0.701h0.344L16.862,136.32z M10.634,137.475v-1.471H6.921V128.4
		H5.188v9.074H10.634z"/>
	<path clip-path="url(#SVGID_2_)" fill="#002956" d="M104.586,152.01c0,0.246-0.18,0.535-0.48,0.77
		c-0.387,0.316-0.922,0.494-1.418,0.494c-0.756,0-1.346-0.316-1.346-0.715c0-0.164,0.109-0.412,0.301-0.729
		c0.043-0.041,0.084-0.123,0.139-0.219h1.994C104.324,151.611,104.586,151.748,104.586,152.01z M103.844,147.031
		c0,0.66-0.469,1.184-1.059,1.184c-0.592,0-1.059-0.523-1.059-1.17c0-0.66,0.467-1.209,1.045-1.209
		C103.361,145.836,103.844,146.371,103.844,147.031z M106.359,146.068v-1.236l-1.293,0.082h-0.947
		c-0.605-0.207-0.867-0.262-1.334-0.262c-1.691,0-2.736,0.936-2.736,2.461c0,0.605,0.191,1.129,0.562,1.568
		c0.152,0.18,0.275,0.275,0.564,0.494c-0.178,0.139-0.316,0.221-0.398,0.289c-0.619,0.412-0.84,0.701-0.84,1.072
		c0,0.387,0.262,0.633,0.895,0.867c-0.742,0.633-1.018,1.059-1.018,1.553c0,0.963,1.059,1.609,2.627,1.609
		c2.145,0,3.684-1.154,3.684-2.75c0-1.031-0.59-1.539-1.842-1.539h-2.24c-0.316,0-0.428-0.041-0.428-0.18
		c0-0.164,0.207-0.371,0.633-0.688c0.207,0.041,0.303,0.041,0.469,0.041c1.676,0,2.805-0.977,2.805-2.434
		c0-0.412-0.07-0.633-0.289-0.949H106.359z M98.562,151.225v-4.701c0-1.211-0.576-1.816-1.732-1.816
		c-0.811,0-1.443,0.344-2.213,1.184v-1.059h-1.65v6.393h1.65v-3.85l0.221-0.232c0.715-0.771,1.195-1.115,1.539-1.115
		c0.398,0,0.537,0.289,0.537,1.086v4.111H98.562z M91.016,151.225v-6.393h-1.65v3.85l-0.221,0.234
		c-0.715,0.756-1.195,1.113-1.553,1.113c-0.387,0-0.523-0.303-0.523-1.086v-4.111h-1.65v4.701c0,1.211,0.578,1.803,1.732,1.803
		c0.812,0,1.443-0.33,2.215-1.184v1.072H91.016z M81.994,149.094c-0.398,0.619-0.906,0.963-1.416,0.963
		c-0.783,0-1.32-0.811-1.32-1.967c0-1.209,0.674-2.104,1.582-2.104c0.508,0,0.963,0.248,1.072,0.592
		c0.041,0.137,0.082,0.467,0.082,0.824V149.094z M83.631,151.225v-10.023h-1.637v3.893c-0.357-0.248-0.508-0.303-0.852-0.387
		c-0.193-0.041-0.385-0.068-0.564-0.068c-1.691,0-3.053,1.596-3.053,3.576c0,1.842,1.113,3.189,2.627,3.189
		c0.426,0,0.824-0.123,1.195-0.357c0.303-0.193,0.414-0.316,0.646-0.688v0.865H83.631z M76.371,151.225v-10.023h-1.637v10.023
		H76.371z M73.029,151.225v-6.393h-1.637v6.393H73.029z M73.141,142.535c0-0.619-0.414-1.113-0.922-1.113
		c-0.51,0-0.936,0.494-0.936,1.113s0.426,1.113,0.936,1.113C72.727,143.648,73.141,143.154,73.141,142.535z M68.148,148.613
		c0,0.467-0.234,0.865-0.619,1.059c-0.26,0.123-0.508,0.164-1.045,0.164h-1.127v-2.502h1.127
		C67.557,147.334,68.148,147.787,68.148,148.613z M67.887,144.68c0,0.771-0.521,1.184-1.498,1.184h-1.031v-2.338h1.127
		C67.365,143.525,67.887,143.951,67.887,144.68z M70.047,148.805c0-1.416-0.867-2.309-2.242-2.336
		c0.715-0.043,1.086-0.207,1.484-0.66c0.33-0.385,0.523-0.922,0.523-1.43c0-0.592-0.275-1.238-0.715-1.623
		c-0.496-0.455-1.086-0.605-2.27-0.605h-3.285v9.074h3.697C69.057,151.225,70.047,150.373,70.047,148.805z M57.066,147.252h-2.502
		c0.138-0.867,0.632-1.361,1.361-1.361C56.695,145.891,57.025,146.275,57.066,147.252z M58.717,150.607l-0.605-1.252
		c-0.592,0.371-0.838,0.494-1.224,0.605c-0.261,0.082-0.509,0.109-0.756,0.109c-0.605,0-1.155-0.303-1.43-0.77
		c-0.151-0.262-0.192-0.482-0.22-1.018h4.235v-0.701c0-1.732-1.1-2.93-2.682-2.93c-1.829,0-3.204,1.527-3.204,3.549
		c0,1.951,1.196,3.203,3.094,3.203c0.743,0,1.43-0.152,2.104-0.453C58.18,150.881,58.414,150.771,58.717,150.607z M51.594,151.225
		v-4.701c0-1.211-0.578-1.816-1.733-1.816c-0.811,0-1.443,0.344-2.213,1.184v-4.689h-1.65v10.023h1.65v-3.85l0.22-0.232
		c0.715-0.771,1.196-1.115,1.54-1.115c0.399,0,0.536,0.289,0.536,1.086v4.111H51.594z M44.912,150.785l-0.605-1.334
		c-0.701,0.412-1.1,0.551-1.65,0.551c-0.99,0-1.677-0.783-1.677-1.926c0-1.195,0.77-2.049,1.856-2.049
		c0.495,0,0.812,0.125,1.292,0.496l0.784-1.252c-0.536-0.316-0.756-0.412-1.224-0.521c-0.344-0.07-0.688-0.111-1.045-0.111
		c-2.035,0-3.396,1.389-3.396,3.451c0,2.008,1.279,3.314,3.259,3.314c0.633,0,1.279-0.123,1.87-0.371
		C44.499,150.979,44.678,150.895,44.912,150.785z M38.422,145.271c-0.578-0.33-0.797-0.412-1.402-0.535
		c-0.399-0.084-0.756-0.125-1.059-0.125c-1.554,0-2.599,0.812-2.599,2.008c0,0.852,0.522,1.443,1.65,1.883l1.1,0.428
		c0.44,0.164,0.646,0.385,0.646,0.674c0,0.344-0.372,0.549-1.004,0.549c-0.234,0-0.467-0.041-0.715-0.123
		c-0.468-0.152-0.729-0.275-1.375-0.674l-0.522,1.334c0.701,0.357,0.99,0.467,1.581,0.592c0.385,0.082,0.729,0.123,1.045,0.123
		c1.54,0,2.558-0.77,2.558-1.939c0-0.562-0.261-1.127-0.66-1.416c-0.289-0.205-1.21-0.633-1.925-0.879
		c-0.578-0.207-0.797-0.385-0.797-0.674c0-0.357,0.412-0.605,1.045-0.605c0.467,0,1.018,0.164,1.471,0.439
		c0.124,0.068,0.275,0.166,0.44,0.275L38.422,145.271z M31.891,151.225v-6.393h-1.636v6.393H31.891z M32,142.535
		c0-0.619-0.412-1.113-0.921-1.113s-0.935,0.494-0.935,1.113s0.426,1.113,0.935,1.113S32,143.154,32,142.535z M29.402,150.607
		l-0.522-1.197c-0.454,0.303-0.688,0.398-0.88,0.398c-0.261,0-0.33-0.205-0.33-0.92v-2.848h1.389v-1.209h-1.389v-1.912h-1.554v1.912
		l-0.949,0.164v1.045h0.949v3.975c0,0.949,0.399,1.389,1.251,1.389c0.454,0,0.949-0.152,1.43-0.426
		C28.976,150.867,29.182,150.744,29.402,150.607z M24.246,151.225v-6.393H22.61v6.393H24.246z M24.356,142.535
		c0-0.619-0.413-1.113-0.921-1.113s-0.935,0.494-0.935,1.113s0.426,1.113,0.935,1.113S24.356,143.154,24.356,142.535z
		 M20.905,151.225v-10.023h-1.636v10.023H20.905z M16.409,148.021c0,1.141-0.688,2.076-1.513,2.076
		c-0.825,0-1.512-0.936-1.512-2.076c0-1.127,0.688-2.062,1.512-2.062C15.721,145.959,16.409,146.895,16.409,148.021z
		 M18.114,148.021c0-1.91-1.389-3.369-3.218-3.369s-3.217,1.459-3.217,3.369c0,1.926,1.389,3.383,3.217,3.383
		S18.114,149.947,18.114,148.021z M9.176,147.953c0,1.195-0.688,2.131-1.568,2.131c-0.275,0-0.591-0.082-0.811-0.191
		c-0.275-0.152-0.357-0.316-0.357-0.771v-0.494v-1.637c0.399-0.674,0.866-1.004,1.416-1.004
		C8.626,145.986,9.176,146.799,9.176,147.953z M10.895,147.844c0-1.844-1.114-3.191-2.654-3.191c-0.413,0-0.784,0.111-1.1,0.316
		c-0.22,0.152-0.385,0.316-0.701,0.729v-0.865H4.79v9.598h1.65v-3.465c0.316,0.273,0.454,0.344,0.839,0.412
		c0.165,0.027,0.344,0.041,0.509,0.041C9.534,151.418,10.895,149.863,10.895,147.844z"/>
	<path clip-path="url(#SVGID_2_)" fill="#002956" d="M61.852,164.975v-4.701c0-1.211-0.578-1.816-1.732-1.816
		c-0.812,0-1.443,0.344-2.214,1.184v-1.059h-1.65v6.393h1.65v-3.85l0.22-0.232c0.715-0.771,1.197-1.115,1.541-1.115
		c0.398,0,0.535,0.289,0.535,1.086v4.111H61.852z M53.396,161.002h-2.502c0.137-0.867,0.632-1.361,1.361-1.361
		C53.024,159.641,53.354,160.025,53.396,161.002z M55.045,164.357l-0.605-1.252c-0.591,0.371-0.839,0.494-1.224,0.605
		c-0.261,0.082-0.509,0.109-0.756,0.109c-0.605,0-1.155-0.303-1.43-0.77c-0.151-0.262-0.192-0.482-0.22-1.018h4.235v-0.701
		c0-1.732-1.1-2.93-2.681-2.93c-1.829,0-3.204,1.527-3.204,3.549c0,1.951,1.196,3.203,3.094,3.203c0.742,0,1.43-0.152,2.104-0.453
		C54.509,164.631,54.743,164.521,55.045,164.357z M46.975,165.76c0,0.246-0.179,0.535-0.481,0.77
		c-0.385,0.316-0.921,0.494-1.416,0.494c-0.756,0-1.348-0.316-1.348-0.715c0-0.164,0.11-0.412,0.302-0.729
		c0.042-0.041,0.083-0.123,0.138-0.219h1.994C46.713,165.361,46.975,165.498,46.975,165.76z M46.232,160.781
		c0,0.66-0.467,1.184-1.059,1.184s-1.059-0.523-1.059-1.17c0-0.66,0.468-1.209,1.045-1.209
		C45.75,159.586,46.232,160.121,46.232,160.781z M48.748,159.818v-1.236l-1.292,0.082h-0.949c-0.605-0.207-0.866-0.262-1.333-0.262
		c-1.691,0-2.736,0.936-2.736,2.461c0,0.605,0.192,1.129,0.563,1.568c0.151,0.18,0.275,0.275,0.564,0.494
		c-0.179,0.139-0.316,0.221-0.399,0.289c-0.619,0.412-0.838,0.701-0.838,1.072c0,0.387,0.261,0.633,0.894,0.867
		c-0.743,0.633-1.018,1.059-1.018,1.553c0,0.963,1.059,1.609,2.626,1.609c2.145,0,3.685-1.154,3.685-2.75
		c0-1.031-0.591-1.539-1.842-1.539h-2.241c-0.316,0-0.426-0.041-0.426-0.18c0-0.164,0.206-0.371,0.632-0.688
		c0.207,0.041,0.303,0.041,0.468,0.041c1.677,0,2.805-0.977,2.805-2.434c0-0.412-0.068-0.633-0.289-0.949H48.748z M40.952,164.975
		v-4.701c0-1.211-0.578-1.816-1.733-1.816c-0.811,0-1.443,0.344-2.213,1.184v-1.059h-1.65v6.393h1.65v-3.85l0.22-0.232
		c0.715-0.771,1.196-1.115,1.54-1.115c0.399,0,0.536,0.289,0.536,1.086v4.111H40.952z M33.5,164.975v-6.393h-1.636v6.393H33.5z
		 M33.609,156.285c0-0.619-0.412-1.113-0.921-1.113s-0.935,0.494-0.935,1.113s0.426,1.113,0.935,1.113
		S33.609,156.904,33.609,156.285z M31.08,158.939c-0.261-0.303-0.55-0.453-0.894-0.453c-0.495,0-0.894,0.412-1.513,1.498
		l-0.069-1.402h-1.416v6.393h1.636v-2.928c0-0.48,0.138-0.854,0.44-1.225c0.248-0.303,0.536-0.48,0.797-0.48
		c0.179,0,0.316,0.055,0.495,0.193L31.08,158.939z M25.374,164.975v-6.393h-1.65v3.85l-0.22,0.234
		c-0.715,0.756-1.196,1.113-1.554,1.113c-0.385,0-0.522-0.303-0.522-1.086v-4.111h-1.65v4.701c0,1.211,0.577,1.803,1.732,1.803
		c0.811,0,1.444-0.33,2.214-1.184v1.072H25.374z M22.06,157.221c0-0.439-0.357-0.797-0.784-0.797c-0.44,0-0.797,0.357-0.797,0.797
		c0,0.426,0.357,0.783,0.797,0.783C21.702,158.004,22.06,157.646,22.06,157.221z M24.755,157.193c0-0.439-0.358-0.783-0.798-0.783
		c-0.426,0-0.784,0.344-0.784,0.783s0.357,0.783,0.784,0.783C24.397,157.977,24.755,157.633,24.755,157.193z M17.935,164.975v-4.701
		c0-1.211-0.577-1.816-1.732-1.816c-0.811,0-1.444,0.344-2.214,1.184v-4.689h-1.65v10.023h1.65v-3.85l0.22-0.232
		c0.715-0.771,1.196-1.115,1.54-1.115c0.398,0,0.536,0.289,0.536,1.086v4.111H17.935z M11.239,157.371V155.9H4.061v1.471h2.723
		v7.604h1.732v-7.604H11.239z"/>
</g>
</svg>
